<?xml version="1.0" standalone="no"?><!DOCTYPE svg PUBLIC "-//W3C//DTD SVG 1.1//EN" "http://www.w3.org/Graphics/SVG/1.1/DTD/svg11.dtd"><svg t="1640881457772" class="icon" viewBox="0 0 1024 1024" version="1.1" xmlns="http://www.w3.org/2000/svg" p-id="4101" xmlns:xlink="http://www.w3.org/1999/xlink" width="200" height="200"><defs><style type="text/css"></style></defs><path d="M604.430336 631.0912c-125.421568 106.3424-294.027264 76.14464-381.81888-32.227328-86.994944-107.38688-77.164544-264.677376 23.279616-359.938048 101.296128-96.069632 258.277376-97.671168 362.039296-3.192832 102.428672 93.270016 119.977984 253.988864 20.498432 370.792448 2.772992 2.60096 5.85728 5.402624 8.730624 8.241152 64.088064 63.305728 128.129024 126.662656 191.88736 190.296064 3.555328 3.549184 6.59456 7.555072 8.671232 12.095488 1.245184 2.725888 1.806336 6.119424 1.816576 9.152512a10.56768 10.56768 0 0 1-0.36864 2.850816c-0.6144 2.23232-1.529856 4.313088-3.069952 6.080512-1.323008 1.517568-3.19488 2.555904-4.950016 3.158016-3.198976 1.09568-7.139328 1.492992-10.496 1.288192-3.575808-0.219136-6.408192-1.878016-9.48224-3.7888-0.800768-0.495616-1.992704-1.153024-2.762752-1.929216-0.811008-0.817152-1.632256-1.554432-2.44736-2.361344-64.475136-63.883264-128.960512-127.758336-193.327104-191.752192-2.861056-2.84672-5.720064-5.64224-8.200192-8.76544z m-175.59552 39.337984c132.540416-0.090112 238.977024-106.678272 238.880768-239.218688-0.096256-132.544512-106.672128-238.966784-239.222784-238.880768-132.534272 0.086016-238.964736 106.668032-238.87872 239.224832 0.083968 132.540416 106.663936 238.962688 239.220736 238.874624z" fill="#ffffff" p-id="4102"></path></svg>