<?xml version="1.0" standalone="no"?><!DOCTYPE svg PUBLIC "-//W3C//DTD SVG 1.1//EN" "http://www.w3.org/Graphics/SVG/1.1/DTD/svg11.dtd"><svg t="1640833500475" class="icon" viewBox="0 0 1024 1024" version="1.1" xmlns="http://www.w3.org/2000/svg" p-id="5411" xmlns:xlink="http://www.w3.org/1999/xlink" width="200" height="200"><defs><style type="text/css"></style></defs><path d="M455.68 813.23008c-197.15072 0-357.55008-160.38912-357.55008-357.55008 0-197.15072 160.39936-357.55008 357.55008-357.55008 197.16096 0 357.55008 160.39936 357.55008 357.55008 0 197.16096-160.38912 357.55008-357.55008 357.55008z m0-686.08c-181.1456 0-328.52992 147.37408-328.52992 328.52992S274.5344 784.20992 455.68 784.20992 784.20992 636.8256 784.20992 455.68 636.8256 127.15008 455.68 127.15008z" p-id="5412"></path><path d="M912.90624 877.8752l-7.31136 8.35584c-7.69024 8.78592-18.8416 11.55072-24.90368 6.18496l-168.5504-149.01248c-7.0144-6.20544-24.6272-37.72416-14.91968-48.81408 9.70752-11.08992 43.0592 2.44736 50.0736 8.6528l168.54016 149.02272c6.07232 5.36576 4.7616 16.83456-2.92864 25.61024z" p-id="5413"></path></svg>