<?xml version="1.0" standalone="no"?><!DOCTYPE svg PUBLIC "-//W3C//DTD SVG 1.1//EN" "http://www.w3.org/Graphics/SVG/1.1/DTD/svg11.dtd"><svg t="1640833466712" class="icon" viewBox="0 0 1024 1024" version="1.1" xmlns="http://www.w3.org/2000/svg" p-id="3934" xmlns:xlink="http://www.w3.org/1999/xlink" width="200" height="200"><defs><style type="text/css"></style></defs><path d="M921.6 724.2752a25.6 25.6 0 0 1-25.6-25.6V506.88a368.64 368.64 0 1 0-737.28 0v192a25.6 25.6 0 0 1-51.2 0V506.88a419.84 419.84 0 1 1 839.68 0v192a25.6 25.6 0 0 1-25.6 25.3952z" fill="#030000" p-id="3935"></path><path d="M355.1744 796.7232a67.072 67.072 0 0 1-134.144 0V562.688a67.072 67.072 0 0 1 134.144 0z" fill="#030000" p-id="3936"></path><path d="M194.6624 577.4848m25.6 0l0 0q25.6 0 25.6 25.6l0 155.2896q0 25.6-25.6 25.6l0 0q-25.6 0-25.6-25.6l0-155.2896q0-25.6 25.6-25.6Z" fill="#030000" p-id="3937"></path><path d="M699.7504 558.4384a67.072 67.072 0 0 1 134.144 0v234.0352a67.072 67.072 0 0 1-134.144 0z" fill="#030000" p-id="3938"></path><path d="M860.2624 779.7248m-25.6 0l0 0q-25.6 0-25.6-25.6l0-155.2896q0-25.6 25.6-25.6l0 0q25.6 0 25.6 25.6l0 155.2896q0 25.6-25.6 25.6Z" fill="#030000" p-id="3939"></path></svg>